<?xml version="1.0" encoding="UTF-8" standalone="no"?>
<svg
   xmlns:dc="http://purl.org/dc/elements/1.1/"
   xmlns:cc="http://creativecommons.org/ns#"
   xmlns:rdf="http://www.w3.org/1999/02/22-rdf-syntax-ns#"
   xmlns:svg="http://www.w3.org/2000/svg"
   xmlns="http://www.w3.org/2000/svg"
   xmlns:sodipodi="http://sodipodi.sourceforge.net/DTD/sodipodi-0.dtd"
   xmlns:inkscape="http://www.inkscape.org/namespaces/inkscape"
   inkscape:export-ydpi="100.02762"
   inkscape:export-xdpi="100.02762"
   inkscape:export-filename="C:\Users\edgar\Desktop\logoCompanie.png"
   sodipodi:docname="logoCompanie.svg"
   inkscape:version="1.0 (4035a4fb49, 2020-05-01)"
   id="svg8"
   version="1.1"
   viewBox="0 0 297 210"
   height="210mm"
   width="297mm">
  <defs
     id="defs2">
    <clipPath
       id="clipPath920"
       clipPathUnits="userSpaceOnUse">
      <path
         d="M 159.04777,3.2803818 A 96.255753,96.003754 0 0 1 255.26151,99.321406 96.255753,96.003754 0 0 1 158.97301,195.28787 96.255753,96.003754 0 0 1 62.750019,99.256063 96.255753,96.003754 0 0 1 159.02928,3.2803755"
         sodipodi:arc-type="arc"
         sodipodi:open="true"
         sodipodi:end="4.7126333"
         sodipodi:start="4.7128253"
         sodipodi:ry="96.003754"
         sodipodi:rx="96.255753"
         sodipodi:cy="99.284126"
         sodipodi:cx="159.00577"
         sodipodi:type="arc"
         id="path922"
         style="font-variation-settings:normal;opacity:1;vector-effect:none;fill:#03a9fb;fill-opacity:1;fill-rule:evenodd;stroke:#fdeb3c;stroke-width:0.273534;stroke-linecap:butt;stroke-linejoin:miter;stroke-miterlimit:4;stroke-dasharray:none;stroke-dashoffset:0;stroke-opacity:1;stop-color:#000000;stop-opacity:1" />
    </clipPath>
    <clipPath
       id="clipPath924"
       clipPathUnits="userSpaceOnUse">
      <path
         d="M 159.04777,3.2803818 A 96.255753,96.003754 0 0 1 255.26151,99.321406 96.255753,96.003754 0 0 1 158.97301,195.28787 96.255753,96.003754 0 0 1 62.750019,99.256063 96.255753,96.003754 0 0 1 159.02928,3.2803755"
         sodipodi:arc-type="arc"
         sodipodi:open="true"
         sodipodi:end="4.7126333"
         sodipodi:start="4.7128253"
         sodipodi:ry="96.003754"
         sodipodi:rx="96.255753"
         sodipodi:cy="99.284126"
         sodipodi:cx="159.00577"
         sodipodi:type="arc"
         id="path926"
         style="font-variation-settings:normal;opacity:1;vector-effect:none;fill:#03a9fb;fill-opacity:1;fill-rule:evenodd;stroke:#fdeb3c;stroke-width:0.273534;stroke-linecap:butt;stroke-linejoin:miter;stroke-miterlimit:4;stroke-dasharray:none;stroke-dashoffset:0;stroke-opacity:1;stop-color:#000000;stop-opacity:1" />
    </clipPath>
    <clipPath
       id="clipPath928"
       clipPathUnits="userSpaceOnUse">
      <path
         d="M 159.04777,3.2803818 A 96.255753,96.003754 0 0 1 255.26151,99.321406 96.255753,96.003754 0 0 1 158.97301,195.28787 96.255753,96.003754 0 0 1 62.750019,99.256063 96.255753,96.003754 0 0 1 159.02928,3.2803755"
         sodipodi:arc-type="arc"
         sodipodi:open="true"
         sodipodi:end="4.7126333"
         sodipodi:start="4.7128253"
         sodipodi:ry="96.003754"
         sodipodi:rx="96.255753"
         sodipodi:cy="99.284126"
         sodipodi:cx="159.00577"
         sodipodi:type="arc"
         id="path930"
         style="font-variation-settings:normal;opacity:1;vector-effect:none;fill:#03a9fb;fill-opacity:1;fill-rule:evenodd;stroke:#fdeb3c;stroke-width:0.273534;stroke-linecap:butt;stroke-linejoin:miter;stroke-miterlimit:4;stroke-dasharray:none;stroke-dashoffset:0;stroke-opacity:1;stop-color:#000000;stop-opacity:1" />
    </clipPath>
  </defs>
  <sodipodi:namedview
     inkscape:pagecheckerboard="false"
     inkscape:window-maximized="1"
     inkscape:window-y="-8"
     inkscape:window-x="-8"
     inkscape:window-height="1017"
     inkscape:window-width="1920"
     showborder="true"
     inkscape:showpageshadow="true"
     showgrid="false"
     inkscape:document-rotation="0"
     inkscape:current-layer="layer2"
     inkscape:document-units="mm"
     inkscape:cy="388.91107"
     inkscape:cx="524.72332"
     inkscape:zoom="1.049975"
     inkscape:pageshadow="2"
     inkscape:pageopacity="1"
     borderopacity="1.0"
     bordercolor="#666666"
     pagecolor="#190933"
     id="base">
    <inkscape:grid
       id="grid10"
       type="xygrid" />
  </sodipodi:namedview>
  <metadata
     id="metadata5">
    <rdf:RDF>
      <cc:Work
         rdf:about="">
        <dc:format>image/svg+xml</dc:format>
        <dc:type
           rdf:resource="http://purl.org/dc/dcmitype/StillImage" />
        <dc:title></dc:title>
      </cc:Work>
    </rdf:RDF>
  </metadata>
  <g
     id="layer1"
     inkscape:groupmode="layer"
     inkscape:label="BackGround" />
  <g
     inkscape:label="Cat"
     id="layer2"
     inkscape:groupmode="layer">
    <g
       inkscape:label="tail"
       id="layer8"
       inkscape:groupmode="layer" />
    <g
       inkscape:label="legs"
       id="layer7"
       inkscape:groupmode="layer" />
    <g
       inkscape:label="Body"
       id="layer6"
       inkscape:groupmode="layer" />
    <g
       inkscape:label="neck"
       id="layer5"
       inkscape:groupmode="layer" />
    <g
       inkscape:label="head"
       id="layer4"
       inkscape:groupmode="layer" />
    <g
       inkscape:label="ears"
       id="layer3"
       inkscape:groupmode="layer" />
    <path
       transform="matrix(1.0727893,0,0,1.1020256,-7.1130439,10.346804)"
       clip-path="url(#clipPath928)"
       sodipodi:nodetypes="ccc"
       id="path835"
       d="M 187.28936,7.3211996 C 199.16214,141.56883 74.245547,129.58196 67.421527,106.05843 52.694086,188.07002 286.16743,175.75953 187.28936,7.3211996 Z"
       style="opacity:1;fill:#665687;fill-opacity:1;stroke:#665687;stroke-width:0.318484px;stroke-linecap:butt;stroke-linejoin:miter;stroke-opacity:1" />
    <path
       transform="matrix(1.0727893,0,0,1.1020256,-7.1130439,10.346804)"
       clip-path="url(#clipPath924)"
       sodipodi:nodetypes="cccscscscsscccccccsccssssccscccccccsscscscsccccssccc"
       d="m 123.12035,62.064176 c 1.2893,6.294548 -0.8927,6.201214 -1.38028,9.226308 v 5.3e-4 c 0,0 -2.51023,4.24764 -4.12688,5.22914 -1.61665,0.9815 1.92701,0.6842 1.92701,0.6842 0,0 -3.09967,2.044 -2.75332,2.3952 0.34635,0.3512 2.86908,0.26148 2.86908,0.26148 0,0 -3.49978,1.71962 -3.42098,1.96164 0.0788,0.242016 3.3786,0.265096 3.3786,0.265096 0.0755,-0.14957 0.44313,2.86836 -0.72243,4.76612 -0.95674,1.55775 2.28701,-1.84286 3.31142,-2.76262 0.29162,-0.26184 0.51777,-0.60245 0.69298,-0.99839 0.98023,1.17482 2.20702,2.13366 3.59875,2.81274 0.24214,0.8864 0.60846,2.59948 0.28008,3.94757 -3.00312,1.67853 -4.85906,4.81597 -4.86016,8.21603 -1.9e-4,0.76813 0.0947,1.53342 0.28267,2.27893 -3.55374,2.66004 -5.63183,6.74262 -5.63325,11.06703 -7.9e-4,2.49744 0.69288,4.94986 2.00918,7.10447 -0.26031,0.042 -0.52332,0.11557 -0.78807,0.23255 -2.75406,1.2169 2.21616,3.2569 5.23431,4.31085 2.12724,1.37571 4.59399,2.19083 7.15305,2.36368 0.0146,1.78088 0.47846,4.20161 1.35151,7.48843 1.81465,6.83175 -0.843,2.55362 -10.18675,8.68915 -6.95583,4.56751 5.69142,9.06833 1.99225,3.85788 -1.82272,-2.56737 5.54381,-0.94539 10.9616,-5.35522 3.8897,-3.16604 2.1314,-10.98694 0.82889,-15.15877 1.51885,-0.40488 2.95954,-1.04252 4.26641,-1.88825 2.81274,-0.93529 8.96908,-3.22986 5.96242,-4.55838 -0.45666,-0.20179 -0.90801,-0.2815 -1.34927,-0.27079 1.20422,-2.08255 1.83658,-4.42473 1.83762,-6.8063 0.002,-4.10429 -1.86867,-8.00377 -5.11855,-10.67273 0.26087,-0.86891 0.39349,-1.77025 0.39377,-2.67633 0.001,-3.58355 -2.05578,-6.85963 -5.31234,-8.45995 -0.26905,-1.24819 0.0137,-2.71787 0.23048,-3.5574 1.45798,-0.6542 2.75016,-1.61104 3.7853,-2.80293 0.18568,0.51315 0.44677,0.94666 0.80253,1.26607 1.02441,0.91976 4.26765,4.32089 3.31091,2.76314 -1.16556,-1.89775 -0.79793,-4.91569 -0.72243,-4.76612 0,0 3.29981,-0.0231 3.3786,-0.2651 0.0788,-0.24202 -3.42098,-1.961626 -3.42098,-1.961626 0,0 2.52273,0.0897 2.86908,-0.26149 0.34637,-0.3512 -2.75332,-2.39572 -2.75332,-2.39572 0,0 3.54365,0.29731 1.92701,-0.68419 -1.10166,-0.66884 -2.60126,-2.83239 -3.4556,-4.15685 -0.18803,-0.50763 -0.41555,-1.00067 -0.68058,-1.47485 -0.18183,-1.833386 -2.17894,-4.510842 0.30748,-8.303369 l -6.58617,3.244247 c -1.0865,-0.339902 -2.22101,-0.513212 -3.36258,-0.513662 h -0.002 c -0.0195,-5e-5 -0.0389,-5e-5 -0.0584,0 -1.11677,0.0056 -2.22612,0.176503 -3.28972,0.506944 z"
       style="font-variation-settings:normal;opacity:1;vector-effect:none;fill:#5dd9c1;fill-opacity:1;fill-rule:evenodd;stroke:#5dd9c1;stroke-width:0.437388;stroke-linecap:butt;stroke-linejoin:miter;stroke-miterlimit:4;stroke-dasharray:none;stroke-dashoffset:0;stroke-opacity:1;stop-color:#000000;stop-opacity:1"
       id="path1226" />
    <path
       transform="matrix(1.0727893,0,0,1.1020256,-7.1130439,10.346804)"
       clip-path="url(#clipPath920)"
       d="m 159.90041,11.911325 -1.95347,3.181902 a 12.68055,12.68055 0 0 0 -0.88975,0.167792 l -3.15032,-2.274203 -0.48048,3.713769 a 12.68055,12.68055 0 0 0 -0.91513,0.592543 l 0.22476,-0.227236 -3.77692,-1.01853 0.89903,3.78497 a 12.68055,12.68055 0 0 0 -0.52939,0.731858 l -3.89147,0.314538 2.18938,3.362698 0.031,-0.06625 a 12.68055,12.68055 0 0 0 -0.29349,1.290344 l 0.009,-0.255716 -3.46981,1.805495 3.32431,2.247577 0.0136,-0.372739 a 12.68055,12.68055 0 0 0 0.29596,1.735527 l -0.22909,-0.576445 -2.44943,3.0494 3.93048,0.715756 a 12.68055,12.68055 0 0 0 0.75538,1.19066 l -0.37955,-0.412984 -1.19933,3.723054 3.94472,-0.738049 -0.26191,-0.284815 a 12.68055,12.68055 0 0 0 1.63461,1.178895 l -0.65323,-0.304013 0.31392,3.898899 3.36332,-2.188758 -0.50524,-0.234664 a 12.68055,12.68055 0 0 0 2.67728,0.591304 l -0.89346,0.01796 1.99744,3.363319 2.04882,-3.431427 a 12.68055,12.68055 0 0 0 1.97205,-0.440848 l -0.8625,0.371502 3.11751,2.362123 0.60678,-3.966387 -0.37769,0.16284 a 12.68055,12.68055 0 0 0 1.25319,-0.807393 l -0.0885,0.100925 3.82955,0.79625 -1.06496,-3.545974 a 12.68055,12.68055 0 0 0 0.92441,-1.427801 l -0.16284,0.4328 3.86423,-0.605547 -2.42095,-3.170756 a 12.68055,12.68055 0 0 0 0.1777,-0.946089 l 3.41719,-1.856883 -3.36456,-2.186897 -0.0105,0.605544 a 12.68055,12.68055 0 0 0 -2.56955,-6.211489 l 0.48109,0.425369 0.80925,-3.826454 -3.63884,1.078589 a 12.68055,12.68055 0 0 0 -0.99996,-0.686037 l 0.0644,0.02662 -0.49471,-3.879703 -3.22834,2.32126 a 12.68055,12.68055 0 0 0 -1.13122,-0.221662 z m 10.89982,8.873288 1.49529,3.76949 2.45191,-3.047542 z"
       style="font-variation-settings:normal;opacity:1;vector-effect:none;fill:#acfcd9;fill-opacity:1;fill-rule:evenodd;stroke:#acfcd9;stroke-width:0.317013;stroke-linecap:butt;stroke-linejoin:miter;stroke-miterlimit:4;stroke-dasharray:none;stroke-dashoffset:0;stroke-opacity:1;stop-color:#000000;stop-opacity:1"
       id="path916" />
  </g>
  <g
     inkscape:label="Circle"
     id="layer9"
     inkscape:groupmode="layer" />
</svg>
