<?xml version="1.0" encoding="UTF-8" standalone="no"?>
<!-- Created with Inkscape (http://www.inkscape.org/) -->

<svg
   width="263mm"
   height="157mm"
   viewBox="0 0 263 157"
   version="1.1"
   id="svg5"
   inkscape:version="1.2.2 (732a01da63, 2022-12-09)"
   sodipodi:docname="wolfCatShadow.svg"
   xmlns:inkscape="http://www.inkscape.org/namespaces/inkscape"
   xmlns:sodipodi="http://sodipodi.sourceforge.net/DTD/sodipodi-0.dtd"
   xmlns="http://www.w3.org/2000/svg"
   xmlns:svg="http://www.w3.org/2000/svg">
  <sodipodi:namedview
     id="namedview7"
     pagecolor="#505050"
     bordercolor="#eeeeee"
     borderopacity="1"
     inkscape:showpageshadow="0"
     inkscape:pageopacity="0"
     inkscape:pagecheckerboard="0"
     inkscape:deskcolor="#505050"
     inkscape:document-units="mm"
     showgrid="false"
     inkscape:zoom="0.74564394"
     inkscape:cx="352.71527"
     inkscape:cy="277.6124"
     inkscape:window-width="1920"
     inkscape:window-height="1017"
     inkscape:window-x="-8"
     inkscape:window-y="-8"
     inkscape:window-maximized="1"
     inkscape:current-layer="layer1" />
  <defs
     id="defs2" />
  <g
     inkscape:label="Capa 1"
     inkscape:groupmode="layer"
     id="layer1">
    <path
       style="fill:#3d2e92;fill-opacity:1;stroke-width:0.264583"
       d="m 4.7672688,11.541807 c 0,0 27.3490642,2.885453 25.4672502,7.65272 -1.881817,4.767268 0.501816,5.018178 3.010905,5.519995 2.509089,0.501819 15.932713,-0.125455 15.681804,2.132726 -0.25091,2.258179 -1.379998,1.881815 -2.007272,3.261815 -0.627272,1.379998 7.652721,5.645449 5.770904,7.903628 -1.881815,2.258179 -2.885451,1.756363 -4.139997,1.379998 -1.254543,-0.376362 4.014542,4.390906 5.269087,6.398178 1.254543,2.007269 -3.13636,1.505453 -4.265451,0.125452 -1.12909,-1.379998 8.656357,12.043627 12.043625,8.279993 3.387269,-3.763632 -0.376362,8.530902 -3.512723,6.147268 -3.13636,-2.383634 9.785446,11.416353 12.921806,7.025447 3.136363,-4.390904 0.376362,8.029089 -2.383634,6.774539 -2.759998,-1.25454 -6.899995,-1.50545 -8.405447,-2.634543 C 58.712673,70.379935 4.7672688,25.592703 8.2799928,21.578161 11.792717,17.56362 4.7672688,11.541807 4.7672688,11.541807 Z"
       id="path279" />
    <path
       style="fill:#3d2e92;fill-opacity:1;stroke-width:0.264583"
       d="m 178.59087,11.738061 c 0,0 -27.34906,2.885453 -25.46725,7.65272 1.88182,4.767268 -0.50182,5.018178 -3.01091,5.519995 -2.50908,0.501819 -15.93271,-0.125455 -15.6818,2.132726 0.25091,2.258179 1.38,1.881815 2.00727,3.261815 0.62727,1.379998 -7.65272,5.645449 -5.7709,7.903628 1.88181,2.258179 2.88545,1.756363 4.14,1.379998 1.25454,-0.376362 -4.01455,4.390906 -5.26909,6.398178 -1.25455,2.007269 3.13636,1.505453 4.26545,0.125452 1.12909,-1.379998 -8.65636,12.043627 -12.04363,8.279993 -3.38727,-3.763632 0.37637,8.530902 3.51273,6.147268 3.13636,-2.383634 -9.78545,11.416353 -12.92181,7.025447 -3.13636,-4.390904 -0.37636,8.029088 2.38363,6.774538 2.76,-1.254539 6.9,-1.505449 8.40545,-2.634542 1.50546,-1.129088 55.45086,-45.91632 51.93814,-49.930862 -3.51273,-4.014541 3.51272,-10.036354 3.51272,-10.036354 z"
       id="path279-7" />
    <path
       style="fill:#3771ea;fill-opacity:1;stroke-width:0.25334"
       d="m 87.345613,126.50625 c 0,0 79.096417,-103.780052 144.483907,-30.157278 67.19869,75.662088 -21.317,43.067188 -27.84063,42.607118 -6.52363,-0.46007 -21.26859,-18.4586 -116.643277,-12.44984 z"
       id="path19880"
       sodipodi:nodetypes="cssc" />
    <g
       id="g19867"
       transform="translate(-8.5309012,0.50181772)">
      <path
         style="fill:#280b0b;stroke-width:0.264583"
         d="M 49.297362,50.593687 C 51.071557,48.109818 48.942524,39.593688 47.523169,37.464655 46.103814,35.335624 36.168329,30.013043 35.458653,25.045301 34.748975,20.077558 18.071556,13.690464 18.071556,13.690464 c 0,0 1.064516,21.290322 4.967742,24.838709 3.903226,3.548387 7.451613,15.258064 3.193548,18.806451 -4.258064,3.548387 14.193549,16.322581 19.51613,13.129033 5.32258,-3.193549 9.580645,-10.290323 16.677419,-3.903226 7.096774,6.387097 12.774193,0.354839 14.903226,5.677419 2.129032,5.322584 2.129032,8.161294 2.129032,8.161294"
         id="path113" />
      <path
         style="fill:#e596dd;fill-opacity:1;stroke-width:0.264583"
         d="M 51.185406,33.621786 C 46.418138,30.86179 54.698131,29.607244 44.159957,30.359971 33.621785,31.112697 40.647235,22.079978 35.127241,20.323616 29.607244,18.567256 16.309074,10.287264 17.56362,13.298169 c 1.254543,3.010906 4.767268,9.283629 3.261815,9.283629 -1.505453,0 8.530902,13.799986 14.301806,14.301803 5.770901,0.501819 2.258179,6.021813 5.269084,6.021813 3.010905,0 5.519994,6.021814 7.778176,5.018178 2.258179,-1.003636 3.010905,6.02181 5.269084,5.018177 2.258179,-1.003636 3.010908,-2.759998 1.505453,-5.519997 -1.505453,-2.759995 -4.014541,-5.519994 -2.509089,-7.276356 1.505456,-1.756363 -1.254543,-6.52363 -1.254543,-6.52363 z"
         id="path2781" />
      <path
         style="fill:#280b0b;stroke-width:0.264583"
         d="m 151.12258,50.789941 c -1.7742,-2.483869 0.35484,-10.999999 1.77419,-13.129032 1.41936,-2.129031 11.35484,-7.451612 12.06452,-12.419354 0.70967,-4.967743 17.38709,-11.354837 17.38709,-11.354837 0,0 -1.06451,21.290322 -4.96774,24.838709 -3.90322,3.548387 -7.45161,15.258064 -3.19355,18.806451 4.25807,3.548387 -14.19355,16.322583 -19.51613,13.129033 -5.32258,-3.193549 -9.58064,-10.290323 -16.67742,-3.903226 -7.09677,6.387097 -12.77419,0.354839 -14.90322,5.677419 -2.12903,5.322587 -2.12903,8.161297 -2.12903,8.161297"
         id="path113-7" />
      <path
         style="fill:#e596dd;fill-opacity:1;stroke-width:0.264583"
         d="m 149.23453,33.81804 c 4.76727,-2.759996 -3.51272,-4.014542 7.02545,-3.261815 10.53817,0.752726 3.51272,-8.279993 9.03272,-10.036355 5.52,-1.75636 18.81817,-10.036352 17.56362,-7.025447 -1.25454,3.010906 -4.76727,9.283629 -3.26182,9.283629 1.50546,0 -8.5309,13.799986 -14.3018,14.301803 -5.7709,0.501819 -2.25818,6.021813 -5.26909,6.021813 -3.0109,0 -5.51999,6.021814 -7.77817,5.018178 -2.25818,-1.003636 -3.01091,6.02181 -5.26909,5.018177 -2.25817,-1.003636 -3.0109,-2.759998 -1.50545,-5.519997 1.50545,-2.759995 4.01454,-5.519994 2.50909,-7.276356 -1.50546,-1.756363 1.25454,-6.52363 1.25454,-6.52363 z"
         id="path2781-4" />
      <path
         style="fill:#3d2e92;fill-opacity:1;stroke-width:0.199572"
         id="path12450"
         sodipodi:type="arc"
         sodipodi:cx="102.99809"
         sodipodi:cy="100.23808"
         sodipodi:rx="46.041779"
         sodipodi:ry="42.779961"
         sodipodi:start="6.2782181"
         sodipodi:end="6.278093"
         sodipodi:arc-type="slice"
         d="m 149.0393,100.02559 a 46.041779,42.779961 0 0 1 -45.81107,42.99192 46.041779,42.779961 0 0 1 -46.271334,-42.56426 46.041779,42.779961 0 0 1 45.808174,-42.99458 46.041779,42.779961 0 0 1 46.2742,42.56157 l -46.04118,0.21784 z" />
      <path
         style="fill:#3d2e92;fill-opacity:1;stroke-width:0.264583"
         d="m 137.74896,84.054467 c 0,0 14.74297,-4.304469 15.45265,2.881017 0.70968,7.185482 2.30645,7.806451 -0.0887,5.41129 -2.39516,-2.395162 -0.0887,10.733866 -1.50806,9.403226 -1.41936,-1.33065 2.30645,9.22581 0.26613,7.80645 -2.04033,-1.41935 -1.15323,13.39516 -2.83871,12.24194 -1.68549,-1.15323 -5.58871,2.66129 -6.74194,1.41935 -1.15322,-1.24194 -2.04032,11.70968 -3.45968,9.31452 -1.41935,-2.39517 -11.88709,14.37096 -8.42741,2.66129 3.45967,-11.70968 -11.08872,10.82258 -12.06452,7.62903 -0.97581,-3.19355 2.28928,-63.026178 2.28928,-63.026178 z"
         id="path12937"
         sodipodi:nodetypes="cssssssssscc" />
      <path
         style="fill:#3d2e92;fill-opacity:1;stroke-width:0.264583"
         d="m 68.956539,84.717259 c 0,0 -14.74297,-4.304469 -15.45265,2.881017 -0.70968,7.185482 -2.30645,7.806451 0.0887,5.41129 2.39516,-2.395162 0.0887,10.733864 1.50806,9.403224 1.41936,-1.33065 -2.30645,9.22581 -0.26613,7.80645 2.04033,-1.41935 1.15323,13.39516 2.83871,12.24194 1.68549,-1.15323 5.58871,2.66129 6.74194,1.41935 1.15322,-1.24194 2.04032,11.70968 3.45968,9.31452 1.41935,-2.39517 11.88709,14.37096 8.42741,2.66129 -3.45967,-11.70968 11.08872,10.82258 12.06452,7.62903 0.97581,-3.19355 -2.28928,-63.026176 -2.28928,-63.026176 z"
         id="path12937-1"
         sodipodi:nodetypes="cssssssssscc" />
      <path
         style="fill:#3d2e92;fill-opacity:1;stroke-width:0.264583"
         d="m 126.67742,83.475805 c 0,0 10.20161,-12.064516 16.76613,-7.362902 6.56451,4.701611 5.67742,3.991935 3.45967,3.814516 -2.21774,-0.177419 2.66129,1.862902 4.87904,3.016129 2.21774,1.153226 -25.10484,0.532257 -25.10484,0.532257 z"
         id="path12939" />
      <path
         style="fill:#3d2e92;fill-opacity:1;stroke-width:0.264583"
         d="m 81.277739,83.625629 c 0,0 -10.20161,-12.064516 -16.76613,-7.362902 -6.56451,4.701611 -5.67742,3.991935 -3.45967,3.814516 2.21774,-0.177419 -2.66129,1.862902 -4.87904,3.016129 -2.21774,1.153226 25.10484,0.532257 25.10484,0.532257 z"
         id="path12939-7" />
      <path
         style="fill:#3d2e92;fill-opacity:1;stroke-width:0.264583"
         d="m 74.870968,65.999999 c 0,0 1.593506,-16.633681 9.308952,-17.762772 7.715448,-1.129088 -0.815454,1.003636 -1.693633,2.697271 -0.878181,1.693635 -3.763634,7.213629 -4.014544,9.848172 -0.250907,2.634544 -5.394539,5.20636 4.014544,-0.752726 9.409081,-5.959086 20.323613,-15.932714 23.397253,-11.72999 3.07363,4.202724 -0.75273,2.446361 -2.19545,1.756362 -1.44273,-0.689998 -14.364538,10.287265 -14.364538,10.287265 0,0 20.574528,-6.649085 24.965428,-4.579088 4.39091,2.069999 2.32091,0.940908 -7.1509,2.822726 -9.471808,1.881814 11.03999,1.003633 13.92544,0.564544 2.88545,-0.439092 1.50546,0.564544 -11.22817,3.073632 -12.733622,2.509089 16.62271,-2.759995 16.8109,-1.442725 0.18818,1.317271 -15.74454,4.641813 -15.74454,4.641813 0,0 16.55999,-2.634541 17.5009,-2.948178 0.9409,-0.313637 1.38,3.575452 -8.59363,4.70454"
         id="path13007" />
    </g>
    <path
       style="fill:#a540e1;fill-opacity:1;stroke-width:0.248787"
       d="m 248.19488,114.60241 c 0,0 -5.51707,-18.099921 -16.07147,-12.06661 -8.916,5.09673 1.19936,3.48075 1.19936,3.48075 0,0 1.67911,3.7128 0.23988,5.10511 -1.43924,1.3923 -4.31772,2.32049 -6.71644,1.16025 -2.39873,-1.16025 -3.35822,1.62435 -4.55758,1.62435 -1.19937,0 7.67592,4.641 10.79428,2.08845 3.11834,-2.55256 -5.03734,7.19356 -7.67594,5.80125 -2.63861,-1.3923 -4.79745,-1.8564 -1.43924,1.62436 3.35822,3.48075 8.63542,2.08844 10.31452,1.62435 1.67913,-0.4641 -11.03414,6.72945 -14.15248,4.17691 -3.11835,-2.55256 0,5.1051 2.15886,6.26535 2.15885,1.16025 10.07465,-2.08845 10.07465,-2.08845 0,0 -9.59492,7.88971 -12.71326,5.1051 -3.11835,-2.78461 6.71644,5.5692 6.71644,5.5692 0,0 28.06512,11.83456 30.46383,0 2.39874,-11.83456 -3.59808,-21.58066 -8.63541,-29.47037 z"
       id="path19893"
       inkscape:transform-center-x="3.1183477"
       sodipodi:nodetypes="cscssssssssscscsc" />
  </g>
</svg>
